<svg width="52" height="48" viewBox="0 0 52 48" fill="none" xmlns="http://www.w3.org/2000/svg">
<path fill-rule="evenodd" clip-rule="evenodd" d="M2.10526 9C2.10526 4.02944 6.13469 0 11.1053 0H41.1053C46.0758 0 50.1053 4.02944 50.1053 9V39C50.1053 43.9706 46.0758 48 41.1053 48H11.1053C6.13469 48 2.10526 43.9706 2.10526 39V9Z" fill="#FB6D3A"/>
<path fill-rule="evenodd" clip-rule="evenodd" d="M32.4998 21.9554C32.8045 22.2642 33.1138 22.5777 33.3817 22.9333L33.3162 22.9467C33.7485 23.4533 34.1022 24 34.3643 24.6133L34.5346 24.96C35.7791 28 34.9276 31.5467 32.5695 33.76C30.4603 35.7333 27.5127 36.2533 24.7616 35.8933C22.1808 35.56 19.7835 33.9067 18.421 31.6C18.0018 30.8933 17.6612 30.0933 17.4778 29.2933C17.2551 28.6267 17.1765 27.96 17.1241 27.2933C16.9407 24.4 18.1066 21.3333 20.2551 19.52C19.2725 21.7067 19.5084 24.44 20.9494 26.3467C21.0149 26.44 21.0673 26.5067 21.1459 26.5733C21.3817 26.7867 21.6961 26.8667 21.9843 26.7333C22.2463 26.6267 22.4429 26.36 22.4429 26.0667C22.4429 25.8933 22.3904 25.76 22.338 25.6267C20.766 21.4267 22.076 16.5333 25.4036 13.76C26.3206 13 27.421 12.3067 28.6132 12C27.421 14.4667 27.814 17.68 29.7267 19.6267C30.1741 20.082 30.6676 20.459 31.1615 20.8362C31.5787 21.1548 31.9961 21.4736 32.3861 21.84C32.4239 21.8784 32.4618 21.9169 32.4998 21.9554ZM27.9057 32.1333C28.3643 32 28.9538 31.6533 29.3206 31.3333H29.3075C30.0935 30.6 30.552 29.4 30.5127 28.3067C30.5127 28.1067 30.4865 27.92 30.4341 27.7333C30.221 26.5535 29.4866 25.893 28.7252 25.2082C28.3164 24.8405 27.8999 24.4658 27.552 24C27.2507 23.6 26.9887 23.0933 26.766 22.5867C26.3992 23.5067 26.373 24.3467 26.5302 25.3333C26.5791 25.628 26.6474 25.9105 26.7146 26.1889C26.8818 26.8805 27.0427 27.5461 26.8839 28.3067C26.6219 29.4933 25.7049 30.6667 24.1459 31.04C25.0236 31.92 26.4647 32.6667 27.9057 32.1333Z" fill="white"/>
</svg>
