<svg width="52" height="48" viewBox="0 0 52 48" fill="none" xmlns="http://www.w3.org/2000/svg">
<path fill-rule="evenodd" clip-rule="evenodd" d="M2.10526 9C2.10526 4.02944 6.13469 0 11.1053 0H41.1053C46.0758 0 50.1053 4.02944 50.1053 9V39C50.1053 43.9706 46.0758 48 41.1053 48H11.1053C6.13469 48 2.10526 43.9706 2.10526 39V9Z" fill="#FB6D3A"/>
<path fill-rule="evenodd" clip-rule="evenodd" d="M22.4386 20.4H24.883V12H27.3275V20.4C27.3275 22.944 25.2986 25.008 22.7441 25.164V36H19.6886V25.164C17.1341 25.008 15.1053 22.944 15.1053 20.4V12H17.5497V20.4H19.9941V12H22.4386V20.4ZM30.9941 26.4V16.8C30.9941 14.688 33.7319 12 37.1053 12V36H34.0497V26.4H30.9941Z" fill="white"/>
</svg>
