<svg width="18" height="17" viewBox="0 0 18 17" fill="none" xmlns="http://www.w3.org/2000/svg">
<path fill-rule="evenodd" clip-rule="evenodd" d="M13.2091 7.1432L9.84837 3.88617H6.15237V5.51469H9.16113L10.8373 7.1432H4.05713C1.9619 7.1432 0.285706 8.77172 0.285706 10.8074C0.285706 12.843 1.9619 14.4715 4.05713 14.4715C5.9177 14.4715 7.4598 13.1524 7.76151 11.4343L9.53827 10.4002C9.50475 10.5387 9.50475 10.6689 9.50475 10.8074V10.8074C9.50475 12.843 11.1809 14.4715 13.2762 14.4715C15.3714 14.4715 17.0476 12.843 17.0476 10.8074C17.0476 8.77172 15.3714 7.1432 13.2762 7.1432H13.2091ZM6.01828 11.4262C5.73332 12.2486 4.96228 12.843 4.03199 12.843C2.87542 12.843 1.93675 11.931 1.93675 10.8074C1.93675 9.68369 2.87542 8.77172 4.03199 8.77172C4.97066 8.77172 5.73332 9.37427 6.01828 10.1967H3.63809V11.4181L6.01828 11.4262ZM11.1558 10.8074C11.1558 11.931 12.0945 12.843 13.251 12.843C14.4082 12.843 15.3463 11.9316 15.3463 10.8074C15.3463 9.68311 14.4082 8.77172 13.251 8.77172C12.0945 8.77172 11.1558 9.68369 11.1558 10.8074Z" fill="#A3A3A4"/>
</svg>
