<svg width="52" height="48" viewBox="0 0 52 48" fill="none" xmlns="http://www.w3.org/2000/svg">
<path fill-rule="evenodd" clip-rule="evenodd" d="M2.10526 9C2.10526 4.02944 6.1347 0 11.1053 0H41.1053C46.0758 0 50.1053 4.02944 50.1053 9V39C50.1053 43.9706 46.0758 48 41.1053 48H11.1053C6.1347 48 2.10526 43.9706 2.10526 39V9Z" fill="#FACD5D"/>
<path fill-rule="evenodd" clip-rule="evenodd" d="M14.1053 15.4444C14.1053 14.1 15.2295 13 16.6316 13H34.3158C35.711 13 36.8421 14.0944 36.8421 15.4444V18.2311C37.5874 18.6589 38.1053 19.4289 38.1053 20.3333V27.6667C38.1053 28.5711 37.5874 29.3411 36.8421 29.7689V32.5556C36.8421 33.9056 35.711 35 34.3158 35H16.6316C15.2363 35 14.1053 33.9056 14.1053 32.5556V15.4444ZM34.3158 15.4444H16.6316V32.5556H34.3158V30.1111H26.7368C25.3416 30.1111 24.2105 29.0167 24.2105 27.6667V20.3333C24.2105 18.9833 25.3416 17.8889 26.7368 17.8889H34.3158V15.4444ZM26.7368 20.3333H35.5789V27.6667H26.7368V20.3333ZM28.6316 24C28.6316 22.9875 29.4799 22.1667 30.5263 22.1667C31.5728 22.1667 32.4211 22.9875 32.4211 24C32.4211 25.0125 31.5728 25.8333 30.5263 25.8333C29.4799 25.8333 28.6316 25.0125 28.6316 24Z" fill="white"/>
</svg>
