<svg width="52" height="48" viewBox="0 0 52 48" fill="none" xmlns="http://www.w3.org/2000/svg">
<path fill-rule="evenodd" clip-rule="evenodd" d="M2.10529 9C2.10529 4.02944 6.13472 0 11.1053 0H41.1053C46.0758 0 50.1053 4.02944 50.1053 9V39C50.1053 43.9706 46.0758 48 41.1053 48H11.1053C6.13472 48 2.10529 43.9706 2.10529 39V9Z" fill="#FACD5D"/>
<path fill-rule="evenodd" clip-rule="evenodd" d="M37.2253 12.04L37.4386 12C37.8068 12 38.1053 12.2985 38.1053 12.6667V32.8267C38.1053 33.1333 37.9053 33.3733 37.6253 33.4667L30.1053 36L22.1053 33.2L14.9853 35.96L14.772 36C14.4038 36 14.1053 35.7015 14.1053 35.3333V15.1733C14.1053 14.8667 14.3053 14.6267 14.5853 14.5333L22.1053 12L30.1053 14.8L37.2253 12.04ZM28.772 17.16L23.4386 15.2933V30.84L28.772 32.7067V17.16ZM16.772 16.6133L20.772 15.2667V30.8667L16.772 32.4133V16.6133ZM31.4386 32.7333L35.4386 31.3867V15.6L31.4386 17.1467V32.7333Z" fill="white"/>
</svg>
