<svg width="48" height="48" viewBox="0 0 48 48" fill="none" xmlns="http://www.w3.org/2000/svg">
<circle cx="24" cy="24" r="24" fill="#FACD5D"/>
<mask id="mask0_32_1339" style="mask-type:alpha" maskUnits="userSpaceOnUse" x="0" y="0" width="48" height="48">
<circle cx="24" cy="24" r="24" fill="white"/>
</mask>
<g mask="url(#mask0_32_1339)">
<path d="M16.7332 34.8L11.7332 51.1333L10.2665 54.9333C10.2665 54.9333 12.3999 57.6667 17.4665 58.7333C20.9332 59.4667 23.2665 59.5333 24.7999 59.4C26.0665 59.2667 27.5999 59 26.7999 56.6667C25.6665 53.2 26.0665 51 26.0665 51L27.8665 41.2L16.7332 34.8V34.8Z" fill="#EA9D7D"/>
<path d="M15.9999 43.6C17.6665 46.1333 20.5998 48.2666 22.2665 49.0666C24.5998 50.2 26.2665 50.4666 26.2665 50.4666L27.7998 42.3333L16.8665 34.8L16.2665 35.9333L15.7999 37.8C15.5999 37.8 14.4665 41.2667 15.9999 43.6Z" fill="url(#paint0_linear_32_1339)"/>
<path d="M10.6665 55H10.5998C10.4749 54.9363 10.3973 54.8069 10.3998 54.6667L13.5332 45.0667C14.1332 43.0667 15.9332 36.3333 15.9332 36.3333C15.9969 36.2084 16.1263 36.1308 16.2665 36.1333C16.3914 36.1971 16.4691 36.3264 16.4665 36.4667L14.0665 45.2C13.5332 47 10.9332 54.7333 10.9332 54.7333C10.9332 54.9333 10.7998 55 10.6665 55Z" fill="#CF7653"/>
<path d="M18.5999 38.6666L18.7332 39L18.9999 38.6666H18.5999Z" fill="#A84D3B"/>
<path fill-rule="evenodd" clip-rule="evenodd" d="M18.4666 38.8L18.5999 38.2L19.1332 38.7333L18.4666 38.8ZM22.1999 41.5333V40.8L22.9332 41.2L22.1999 41.5333ZM20.3999 39.6666L20.2665 40.3333L21.0665 40.1333L20.3999 39.6666ZM19.2665 39.6L19.3999 38.9333L20.0665 39.4L19.2665 39.6Z" fill="#A84D3B"/>
<path fill-rule="evenodd" clip-rule="evenodd" d="M17.8666 38.2666L18.1999 37.6L18.6666 38.2666H17.8666ZM22.8666 41.9333L23.1333 42.3333L22.5999 42.4666L22.8666 41.9333ZM22.2666 41.6L21.8666 41.1333L21.6666 41.6666L22.2666 41.6ZM24.5333 42.5333L24.9999 43.0666L24.3333 43.1333L24.5333 42.5333ZM26.9333 43.7333L26.5333 43.2666L26.3333 43.8L26.9333 43.7333ZM22.9999 41.2L23.4666 41.4L22.9999 41.7333V41.2ZM24.3999 43.4666L24.0666 43.0666L23.7999 43.6L24.3999 43.4666ZM21.3332 40.5333L21.7999 40.7333L21.3332 41.0666V40.5333Z" fill="#A84D3B"/>
<path fill-rule="evenodd" clip-rule="evenodd" d="M17.5332 36.4666L17.2665 36.7333L17.5999 36.8666L17.5332 36.4666ZM19.4665 39.7333L19.7332 39.5333L19.8665 39.9333L19.4665 39.7333ZM25.2665 42.1333L24.6665 41.8666V42.7333L25.2665 42.1333ZM26.5999 42.4L26.0665 42.2666L26.1999 42.9333L26.5999 42.4ZM26.9332 43.4L27.3999 43.4666L27.1332 43.9333L26.9332 43.4ZM25.5999 43.2666L25.3332 42.8666L24.9999 43.3333L25.5999 43.2666ZM27.2665 44.3333L27.1999 44.8L26.7332 44.5333L27.2665 44.3333ZM26.9999 45.7333L27.1332 45.2666L26.5999 45.4L26.9999 45.7333ZM25.5999 45.9333L25.8666 45.7333L25.9999 46.1333L25.5999 45.9333ZM26.1332 43.1333L25.8665 43.3333L26.1999 43.5333L26.1332 43.1333ZM27.2666 42.6L27.5999 42.6666L27.3332 43L27.2666 42.6ZM26.3999 46.4666L26.1332 46.7333L26.4665 46.8666L26.3999 46.4666ZM24.0665 42.6L24.2665 42.8L23.9332 42.9333L24.0665 42.6ZM22.3332 42.2666L22.4665 41.9333L22.1332 42L22.3332 42.2666ZM23.3999 42.6L23.3332 42.8666L23.0665 42.6H23.3999ZM24.7332 44.1333L24.8665 44.4666L25.1332 44.2L24.7332 44.1333ZM26.3999 43L26.6665 42.8666L26.7332 43.2L26.3999 43Z" fill="#A84D3B"/>
<path fill-rule="evenodd" clip-rule="evenodd" d="M16.5999 38.8L16.3999 38.6666L16.3332 38.9333L16.5999 38.8ZM19.2666 39L18.8666 39.2666L19.3332 39.5333L19.2666 39ZM18.1999 39.8V39.4666L18.5999 39.6666L18.1999 39.8ZM23.3999 41.8666L23.7332 41.6666L23.3999 41.4666V41.8666ZM18.5332 41.9333L18.6666 41.8L18.7999 42L18.5332 41.9333ZM26.3999 42.7333L26.7999 42.4666L26.8665 43L26.3999 42.7333ZM25.6666 42.9333L25.9332 42.8L25.9999 43.1333L25.6666 42.9333ZM26.1999 47.5333L25.9332 47.6666L26.2666 47.8666L26.1999 47.5333ZM25.5999 47L25.5332 46.7333L25.8665 46.8L25.5999 47ZM25.4665 45.1333L25.5332 45.4L25.7999 45.2L25.4665 45.1333ZM26.5332 45.6L26.7332 45.8L26.3999 45.9333L26.5332 45.6ZM17.4665 42.6666L17.5999 42.8L17.7332 42.5333L17.4665 42.6666ZM20.0665 44.2L19.8665 44.1333V44.3333L20.0665 44.2ZM19.2666 43.2666L19.3999 43.0666L19.5332 43.2666H19.2666ZM23.9332 45.2V45.5333L24.3332 45.4L23.9332 45.2ZM23.3332 42.4666V42.1333L23.7332 42.3333L23.3332 42.4666ZM26.1999 44.3333L25.9332 44.4L26.1332 44.6666L26.1999 44.3333ZM25.0665 46.8L25.1999 47.0666H24.8665L25.0665 46.8ZM25.4666 43.6L25.5999 43.9333L25.8666 43.6H25.4666ZM26.6665 44.3333L26.4665 44H26.9332L26.6665 44.3333ZM27.1999 42.8L26.9999 43L27.3332 43.1333L27.1999 42.8ZM26.5332 44.7333L26.7999 44.8666L26.5332 45.0666V44.7333ZM17.7332 39.3333L17.9332 39.4666L17.6665 39.6L17.7332 39.3333ZM16.2665 40.6666L16.1999 40.8666L15.9999 40.6666H16.2665Z" fill="#A84D3B"/>
<path fill-rule="evenodd" clip-rule="evenodd" d="M16.9332 36.8666L16.7332 36.7333L16.6666 37.0666L16.9332 36.8666ZM17.5999 37.3333L17.7999 36.9333L18.1332 37.4L17.5999 37.3333ZM17.9999 38.7333L18.1332 39.2L18.5332 38.8L17.9999 38.7333ZM18.7999 39.4L18.9332 39.6666L19.1332 39.4H18.7999ZM19.8666 40.2L19.6666 40.3333L19.9332 40.4666L19.8666 40.2ZM20.1332 40.0666L20.3332 39.9333L20.3999 40.2L20.1332 40.0666ZM20.8666 40.2L20.6666 40.3333L20.9332 40.4666L20.8666 40.2ZM19.7332 41.8L19.9332 41.9333L19.6666 42.0666L19.7332 41.8ZM15.9332 39.6666L16.0666 39.9333L16.2666 39.6666H15.9332ZM17.2666 38.3333L17.3999 38.1333L17.4666 38.4L17.2666 38.3333ZM17.3332 40.6666L17.1332 40.5333V40.8L17.3332 40.6666ZM17.7332 38.1333L17.5999 37.8666H17.9332L17.7332 38.1333ZM18.1999 38.2666L18.3332 38.5333L18.5332 38.2666H18.1999ZM16.5332 37.7333L16.6666 37.5333L16.7332 37.8666L16.5332 37.7333ZM20.4666 40.8666V40.5333L20.7332 40.7333L20.4666 40.8666ZM21.6666 41.1333L21.4666 41.2L21.5999 41.4L21.6666 41.1333ZM20.9332 40.6666L21.1332 40.6L21.0666 40.8666L20.9332 40.6666ZM25.5999 42.6L25.3999 42.6666L25.5332 42.8666L25.5999 42.6ZM24.3999 42.2L24.6666 42.1333L24.5999 42.4L24.3999 42.2ZM21.5332 42.6666L21.3999 42.4L21.1999 42.6666H21.5332ZM25.1332 45.7333L25.2666 45.9333H24.9332L25.1332 45.7333ZM21.1332 41.9333L20.9999 41.7333L20.8666 41.9333H21.1332ZM23.1999 41.7333L22.8666 41.8666V41.6L23.1999 41.7333ZM23.9999 41.8V42.1333L24.2666 42L23.9999 41.8ZM24.9332 42.4666L25.1332 42.4L25.0665 42.7333L24.9332 42.4666ZM24.2666 43.8L24.1332 43.6L23.9999 43.8H24.2666ZM21.6666 43.8666L21.3332 44V43.7333L21.6666 43.8666ZM22.6665 43L22.3999 43.0666L22.5999 43.2666L22.6665 43ZM24.7999 43.3333L24.9332 43.5333H24.6666L24.7999 43.3333Z" fill="#A84D3B"/>
<path d="M32.9332 18.8C32.9332 18.8 34.8665 21.9333 35.1999 23.4C35.5332 24.6667 35.5999 25.9333 35.5999 26.6667C35.5999 29.4667 35.3999 33.4 35.0665 35.6C34.3999 39.4 32.5999 41.6666 30.4665 42.3333C28.3332 43 24.4665 41.6 21.8665 40.2666C19.6665 39.1333 18.3999 37.9333 18.0665 36.5333C17.7332 35.0666 17.0665 33.2 17.0665 33.2L17.1999 28.8666L22.3332 17.9333L32.9332 18.8Z" fill="#EA9D7D"/>
<path d="M19.7332 30.8667C19.7332 30.8667 23.5999 26.5333 26.0665 25.6C30.7999 23.6667 35.3999 23.8667 35.3999 23.8667L34.6665 21.5333L21.1999 19.7333L18.2665 28.1333L19.7332 30.8667Z" fill="url(#paint1_linear_32_1339)"/>
<ellipse cx="15.6665" cy="32.4667" rx="3.53333" ry="3.8" fill="#EA9D7D"/>
<path fill-rule="evenodd" clip-rule="evenodd" d="M11.7999 32.4667C11.7999 34.6667 13.5332 36.5333 15.6665 36.5333C17.7999 36.5333 19.5332 34.6667 19.5332 32.4667C19.5332 30.2667 17.7999 28.4 15.6665 28.4C13.5332 28.4 11.7999 30.2 11.7999 32.4667ZM12.3999 32.4667C12.3999 30.5333 13.8665 28.9333 15.6665 28.9333C17.4665 28.9333 18.9332 30.4667 18.9332 32.4667C18.9332 34.4 17.4665 36 15.6665 36C13.8665 36 12.3999 34.4 12.3999 32.4667Z" fill="#B76349"/>
<ellipse cx="15.7998" cy="32.4667" rx="1.60001" ry="1.66667" fill="url(#paint2_linear_32_1339)"/>
<path d="M19.5333 30.0667L18.3999 31.0667L17.9332 34.8L18.1332 35.8666C18.1332 35.8666 19.7333 35 19.8666 33.2666C19.9999 31.5333 19.5333 30.0667 19.5333 30.0667V30.0667Z" fill="#EA9D7D"/>
<path d="M28.2666 42.6C27.5332 42.6 26.9332 42.4666 25.5999 42.1333C23.4666 41.6 20.4666 39.9333 18.9332 38.4666C17.4666 37 17.5999 35.6 17.5999 35.5333C17.5999 35.4 17.5999 35.2 17.7332 35.2C17.8666 35.2 17.9332 35.3333 17.9999 35.4666C18.0666 35.7333 18.0666 36.8666 19.2666 38.0666C20.6666 39.4666 23.6666 41.0666 25.6666 41.6C27.7332 42.0666 28.1332 42.2 29.6666 42.0666C31.1332 41.9333 31.9999 41.3333 31.9999 41.3333C32.1999 41.2 32.3999 41.1333 32.2666 41.3333C32.1332 41.4666 31.0666 42.3333 29.7332 42.5333C29.1332 42.6 28.7332 42.6 28.2666 42.6Z" fill="#B76349"/>
<path fill-rule="evenodd" clip-rule="evenodd" d="M29.5332 30.0667L28.6665 29.5333L29.6665 29L29.5332 30.0667ZM28.9998 32.1333L28.5332 32.5333L28.3998 31.9333L28.9998 32.1333ZM22.5332 31.9333L22.6665 32.2667H22.1998L22.5332 31.9333ZM30.3998 32.9333L31.0665 33.3333L31.1332 32.5333L30.3998 32.9333Z" fill="#F4B9A6"/>
<path fill-rule="evenodd" clip-rule="evenodd" d="M29.3998 25.2667L29.1998 25.7333L29.7998 25.6667L29.3998 25.2667ZM29.5331 28.4667L28.6665 29V27.8L29.5331 28.4667ZM31.5331 34.4L30.6665 34.9333V33.8L31.5331 34.4ZM31.5331 33.8667L31.8665 32.9333H30.7331L31.5331 33.8667ZM27.7998 32.0667L28.3331 31.9333L28.1331 32.5333L27.7998 32.0667ZM28.7331 31.2L28.1331 31.3333L28.5331 31.8L28.7331 31.2ZM28.7998 34.6L28.5998 34.0667L29.2665 34.1333L28.7998 34.6ZM28.8665 35.0667L29.3331 35.3333L29.4665 34.8L28.8665 35.0667ZM31.0665 36.8667L31.5998 36.6667L31.4665 37.3333L31.0665 36.8667ZM29.4665 28.5333L29.9331 28.6L29.6665 29L29.4665 28.5333ZM30.3998 26.9333L29.9331 26.8667L30.0665 27.3333L30.3998 26.9333ZM26.4665 28.4667L26.5331 27.8667L27.0665 28.2L26.4665 28.4667ZM27.7998 26.9333L27.3331 27.2667L27.8665 27.6L27.7998 26.9333ZM25.2665 27.7333H25.5998L25.4665 28.0667L25.2665 27.7333ZM30.6665 36.7333L30.1998 36.8667L30.5332 37.2L30.6665 36.7333ZM29.6665 36.5333L30.1331 36.4L29.9998 36.9333L29.6665 36.5333ZM26.1331 33.4667L25.6665 33.5333L25.9331 34L26.1331 33.4667ZM26.7998 34.4667L27.2665 34.3333L27.0665 34.8667L26.7998 34.4667ZM25.7331 32L25.6665 32.4L26.1998 32.2667L25.7331 32ZM27.9331 31.0667L28.1331 31.4667H27.5998L27.9331 31.0667ZM32.9998 35.3333L33.2665 35.0667L32.7998 35L32.9998 35.3333ZM31.3998 34.0667L31.1331 34L31.3998 33.7333V34.0667ZM34.1331 31.2L34.3998 31.0667L34.1331 30.9333V31.2ZM33.0665 32.4667L32.7331 32.4L32.9331 32.1333L33.0665 32.4667Z" fill="#F4B9A6"/>
<path fill-rule="evenodd" clip-rule="evenodd" d="M28.8665 26.7333L29.4666 26.6L28.9999 26.1333L28.8665 26.7333ZM24.3332 29.2L24.5332 28.8667L24.7332 29.2H24.3332ZM34.3332 31.1333L34.2665 31.4L33.9999 31.2L34.3332 31.1333ZM30.6665 33.2667L29.4665 33.6L29.6665 32.2667L30.6665 33.2667ZM28.5332 29.0667L28.0665 29L28.1332 29.4667L28.5332 29.0667ZM24.5332 32.0667L25.0665 31.8667V32.2667L24.5332 32.0667ZM27.7332 27.7333L27.7999 28.3333L28.3332 27.9333L27.7332 27.7333ZM27.5999 29L27.0665 29.2667L26.9999 28.7333L27.5999 29ZM27.5999 28.3333L27.6665 28.9333L28.1999 28.6L27.5999 28.3333ZM33.0665 27.9333L32.5999 27.7333L33.0665 27.4V27.9333ZM28.5999 30.6L28.3332 30.2667L27.9999 30.7333L28.5999 30.6ZM30.3999 36.2667L30.8665 36.1333L30.7332 36.6667L30.3999 36.2667ZM28.7999 33.2667L28.6665 33.6H29.1332L28.7999 33.2667ZM29.0665 35.2667L29.2665 35.6L28.8665 35.6667L29.0665 35.2667ZM29.9332 35.9333L30.1999 35.6667L29.7999 35.5333L29.9332 35.9333ZM30.4665 34.8L30.1332 35.0667L29.9999 34.6L30.4665 34.8Z" fill="#F4B9A6"/>
<path fill-rule="evenodd" clip-rule="evenodd" d="M30.0665 25.8667L29.7332 26.1333L30.1998 26.2667L30.0665 25.8667ZM32.1332 26.8L31.6665 26.9333L31.7998 26.4L32.1332 26.8ZM28.5999 28.0667L29.0665 28L28.7332 27.6L28.5999 28.0667ZM30.3332 29.8667L30.8665 29.4L31.1332 30.1333L30.3332 29.8667ZM28.7332 30.3333L28.5332 30H28.9998L28.7332 30.3333ZM24.1332 30.9333L23.8665 30.6L23.6665 31.0667L24.1332 30.9333ZM30.1332 32.2667L29.7998 32.5333L29.6665 32.0667L30.1332 32.2667ZM30.4665 34.2667L30.0665 34.6L29.9332 34.0667L30.4665 34.2667ZM28.8665 32.7333L29.1998 32.9333L29.3332 32.6L28.8665 32.7333ZM32.4665 35.9333L32.8665 35.8667L32.7332 36.2667L32.4665 35.9333ZM30.7332 32.1333L30.5998 32.4667L31.0665 32.4L30.7332 32.1333ZM31.5332 35.8667L31.7998 36.2L31.3332 36.2667L31.5332 35.8667ZM29.4665 37.5333L29.5332 38L29.9332 37.6667L29.4665 37.5333ZM27.9332 35.5333L28.2665 35.4V35.8L27.9332 35.5333ZM28.9332 36.0667L28.8665 36.4667L28.5998 36.3333L28.9332 36.0667ZM27.3998 35.6667L27.6665 35.8L27.7332 35.3333L27.3998 35.6667ZM25.1332 36.5333L25.2665 36.1333L25.5998 36.4667L25.1332 36.5333ZM26.7332 37.6H26.3332L26.4665 38L26.7332 37.6ZM24.9998 38.0667L25.3332 38.1333L25.0665 38.4667L24.9998 38.0667ZM29.1332 31.8667L29.9332 31.6667L29.2665 31L29.1332 31.8667ZM28.5998 30.7333L28.9998 31.3333L29.5332 30.6L28.5998 30.7333ZM25.9332 30.3333L25.5332 30.5333L25.9332 30.7333V30.3333ZM29.8665 30.6667L30.1332 30.4L30.2665 30.8L29.8665 30.6667ZM32.0665 29L31.5999 29.1333L31.6665 28.6L32.0665 29ZM28.8665 29L28.4665 28.6667L28.3332 29.1333L28.8665 29ZM25.9998 27.0667L26.3998 26.8667V27.2667L25.9998 27.0667ZM26.9332 33.1333L26.8665 33.6667L27.4665 33.4667L26.9332 33.1333ZM25.7332 33L26.1998 32.9333L25.9998 33.4L25.7332 33ZM27.1998 34.9333L27.1332 35.4667L27.6665 35.2667L27.1998 34.9333ZM27.8665 33.5333V33L28.4665 33.2L27.8665 33.5333ZM27.3998 34L27.4665 34.5333L27.9998 34.2L27.3998 34ZM26.7998 32.1333V32.5333L26.3998 32.3333L26.7998 32.1333Z" fill="#F4B9A6"/>
<path fill-rule="evenodd" clip-rule="evenodd" d="M26.8665 27L27.2665 26.8V27.2L26.8665 27ZM31.1998 28.0667L30.9998 27.8L31.4665 27.7333L31.1998 28.0667ZM33.1998 29.2L32.7332 29.3333L32.7998 28.8L33.1998 29.2ZM34.4665 33.1333L34.8665 32.9333L34.5332 32.6667L34.4665 33.1333ZM30.0665 28V28.4667L30.5999 28.3333L30.0665 28ZM29.4665 27.6L29.5332 27.1333L29.9998 27.4L29.4665 27.6ZM29.8665 31.6L30.6665 32.1333L30.9332 31.1333L29.8665 31.6ZM32.6665 31.3333L31.7999 31.6L32.0665 30.5333L32.6665 31.3333ZM29.6665 32.0667L29.9332 32.1333L29.8665 31.8L29.6665 32.0667ZM29.1332 30.5333L29.2665 30.2L29.5998 30.5333H29.1332ZM30.0665 29.2L29.5999 29.2667L29.8665 29.6667L30.0665 29.2ZM31.0665 29.4667L31.5332 29.4L31.3332 29.8667L31.0665 29.4667Z" fill="#F4B9A6"/>
<path fill-rule="evenodd" clip-rule="evenodd" d="M31.1998 26.2667L31.4665 25.7333H30.7998L31.1998 26.2667ZM29.7332 30.0667L30.7332 29.5333L29.6665 28.8667L29.7332 30.0667ZM30.6665 33.4L30.4665 33.8667L30.0665 33.4H30.6665ZM29.5998 31.3333L30.4665 30.8667L29.5332 30.2667L29.5998 31.3333ZM30.4665 27.6667L30.1332 27.4L30.5998 27.2667L30.4665 27.6667ZM31.1998 28.1333L30.7332 28.8667L31.7332 28.9333L31.1998 28.1333ZM31.6665 27.4667L31.8665 27.2L32.1332 27.5333L31.6665 27.4667ZM32.3332 30.0667L32.5998 30.3333L32.7332 29.9333L32.3332 30.0667ZM30.8665 27.0667L31.0665 26.8L31.3332 27.1333L30.8665 27.0667ZM25.1332 30.7333L24.6665 30.8667L25.0665 31.2667L25.1332 30.7333ZM25.5998 29.1333L25.7998 28.7333L26.1332 29.1333H25.5998ZM26.7999 28.7333L26.7332 28.3333L26.3999 28.6667L26.7999 28.7333ZM26.1999 30.4667L26.2665 30.8667L25.7998 30.8L26.1999 30.4667Z" fill="#F4B9A6"/>
<path fill-rule="evenodd" clip-rule="evenodd" d="M21.5332 21.1333V20.4L22.1999 20.7333L21.5332 21.1333ZM34.3332 22.2L34.5332 22.4L34.5999 22.0667L34.3332 22.2ZM33.3332 22.7333L33.1332 22.5333L33.4666 22.4L33.3332 22.7333ZM28.0665 23.0667L28.1332 22.7333L28.3332 23.0667H28.0665ZM28.0666 23.3333L28.2666 23.6L27.9999 23.6667L28.0666 23.3333ZM30.8665 23.1333L30.6665 22.9333L30.5332 23.2L30.8665 23.1333ZM34.1999 22.5333L33.9332 22.6L33.9999 22.2667L34.1999 22.5333ZM28.9332 23.1333L28.7332 22.9333L28.5999 23.2L28.9332 23.1333ZM31.7999 22.7333L32.0665 22.9333L31.7332 23.0667L31.7999 22.7333ZM27.7332 23.2667L27.5332 23L27.3999 23.3333L27.7332 23.2667ZM25.6665 22.2L25.5332 22.5333L25.9332 22.4667L25.6665 22.2ZM22.9332 21.5333V21.2L23.2665 21.4L22.9332 21.5333ZM22.7999 22.4667L22.7332 22.8L23.1332 22.6667L22.7999 22.4667ZM23.1999 23.6L23.1332 23.2L23.5332 23.3333L23.1999 23.6ZM26.3332 22.6667L26.0665 22.4667L25.9332 22.7333L26.3332 22.6667ZM26.5999 22.8667L26.5332 22.4L27.0665 22.5333L26.5999 22.8667Z" fill="#A84D3B"/>
<path fill-rule="evenodd" clip-rule="evenodd" d="M23.1999 21.3333L23.2665 21.8L23.7999 21.5333L23.1999 21.3333ZM23.8665 22L23.9999 22.5333L24.4666 22.1333L23.8665 22ZM27.7999 23L27.5999 22.6666H28.0665L27.7999 23ZM30.2665 23.0666L30.0665 22.8L30.5332 22.7333L30.2665 23.0666ZM31.2665 23.0666L31.0665 22.7333L31.5332 22.6666L31.2665 23.0666ZM28.9999 22.7333L29.1332 23.2L29.5999 22.8666L28.9999 22.7333ZM24.9999 22.6666L24.8665 22.4L25.2665 22.4666L24.9999 22.6666ZM23.6665 23.6L23.5999 23.9333L23.9332 23.8L23.6665 23.6ZM23.2665 24.1333L23.3332 23.8667L23.5999 24.0667L23.2665 24.1333ZM25.6665 22.6L25.7999 22.7333L25.8665 22.6H25.6665ZM27.2665 22.9333L27.1332 22.8L27.3999 22.7333L27.2665 22.9333ZM29.6665 23L29.7332 23.1333L29.8665 23H29.6665ZM22.7999 24.1333L22.9999 24.0667L22.9332 24.2666L22.7999 24.1333ZM22.8665 23.8L23.1332 23.7333L23.0665 24L22.8665 23.8Z" fill="#A84D3B"/>
<path fill-rule="evenodd" clip-rule="evenodd" d="M22.5999 21.7333V21.5333L22.8665 21.6667L22.5999 21.7333ZM23.5332 21.9333L23.2665 21.8L23.5332 21.6V21.9333ZM22.8665 23.4667L22.9332 23.8L22.5332 23.7333L22.8665 23.4667ZM25.1999 22.3333L25.4665 22.4L25.3999 22.0667L25.1999 22.3333ZM23.1999 22.3333L23.4665 22.4L23.3999 22.0667L23.1999 22.3333ZM23.1332 24.9333V24.7333L23.3332 24.8667L23.1332 24.9333ZM22.5332 22.2L22.2665 22.2667L22.4665 22.4667L22.5332 22.2ZM22.5999 24.5333V24.0667L23.0665 24.2667L22.5999 24.5333Z" fill="#A84D3B"/>
<path fill-rule="evenodd" clip-rule="evenodd" d="M22.3999 20.8L22.4665 21.3333L22.9332 21.2L22.3999 20.8ZM22.9332 22L22.7332 22.2L22.6665 21.9333L22.9332 22ZM22.9999 24.6L22.7332 24.8L22.6665 24.4667L22.9999 24.6ZM22.3332 22.9333L22.5998 22.7333L22.1999 22.5333L22.3332 22.9333ZM24.0665 22.8667L23.8665 22.7333L24.1332 22.6L24.0665 22.8667ZM22.7332 25.5333L22.9999 25.4L22.7332 25.2V25.5333ZM21.9999 27V26.6667L22.2665 26.8667L21.9999 27ZM21.9999 22.1333L21.7999 21.9333L22.1332 21.8L21.9999 22.1333ZM24.4665 21.8L24.5999 22.4L25.1332 22.0667L24.4665 21.8ZM22.1999 21.7333L21.9999 21.5333L22.3332 21.4667L22.1999 21.7333ZM26.1332 23.0667L26.4665 23.2L26.3999 22.8667L26.1332 23.0667ZM32.7332 23L32.4665 22.8667L32.7332 22.6667V23ZM22.5332 23.5333L22.9998 23.3333L22.5332 22.9333V23.5333ZM21.8665 21.2667L22.1332 20.8L22.3999 21.3333L21.8665 21.2667Z" fill="#A84D3B"/>
<path fill-rule="evenodd" clip-rule="evenodd" d="M21.5999 21.4L21.8665 21.2667V21.6L21.5999 21.4ZM23.1999 22.8L23.4665 22.8667L23.2665 23.0667L23.1999 22.8ZM24.2665 21.8L24.1999 22.0667L24.4665 22L24.2665 21.8ZM22.0665 21.8667L22.5332 22.0667L22.0665 22.4V21.8667Z" fill="#A84D3B"/>
<path fill-rule="evenodd" clip-rule="evenodd" d="M22.5999 21.3333L22.7332 21.6L22.8665 21.3333H22.5999ZM21.8665 21.5333L21.7999 21.7333L22.0665 21.6666L21.8665 21.5333ZM23.7332 21.5333L24.0665 21.8L23.6665 22L23.7332 21.5333Z" fill="#A84D3B"/>
<path fill-rule="evenodd" clip-rule="evenodd" d="M15.8665 30.9333L16.1998 30.8666L16.0665 31.2L15.8665 30.9333ZM17.3332 32.5333V32.8L17.0665 32.6L17.3332 32.5333Z" fill="#964C38"/>
<path fill-rule="evenodd" clip-rule="evenodd" d="M15.1332 31L15.5332 30.8666L15.4665 31.3333L15.1332 31ZM15.7998 31.3333L16.1332 30.9333L16.3332 31.4666L15.7998 31.3333ZM17.2665 31.8L17.0665 32L17.3332 32.0666L17.2665 31.8ZM16.4665 31.7333L16.6665 31.5333L16.7332 31.8L16.4665 31.7333Z" fill="#964C38"/>
<path fill-rule="evenodd" clip-rule="evenodd" d="M15.3999 31.6L15.5999 31.4L15.6666 31.6667L15.3999 31.6ZM16.9332 32.2L17.0666 32L17.1999 32.2667L16.9332 32.2Z" fill="#964C38"/>
<path fill-rule="evenodd" clip-rule="evenodd" d="M14.9999 31.5333L15.2665 31.2667L15.4665 31.7333L14.9999 31.5333ZM16.5332 32.5333L16.3332 32.4667L16.5999 32.3333L16.5332 32.5333ZM17.1332 31.6L17.0665 31.7333H17.2666L17.1332 31.6ZM17.1999 32.4L17.2665 32.2667L17.3999 32.4H17.1999Z" fill="#964C38"/>
<path fill-rule="evenodd" clip-rule="evenodd" d="M16.4665 30.9333L16.2665 31.1333L16.1999 30.8666L16.4665 30.9333ZM14.5999 31.4L14.8665 31.1333L14.9999 31.5333L14.5999 31.4ZM15.3332 32.3333L15.2665 32.2H15.3999L15.3332 32.3333ZM15.7332 32.6L15.5998 32.6666L15.7998 32.7333L15.7332 32.6ZM15.5332 31.1333L15.3332 31.2666L15.5999 31.3333L15.5332 31.1333ZM14.9999 31.2L15.1998 31.2666L14.9999 31.4666V31.2Z" fill="#964C38"/>
<path fill-rule="evenodd" clip-rule="evenodd" d="M16.4665 31.4667L16.5332 31L16.9332 31.3333L16.4665 31.4667ZM15.1999 31.2667V31.0667L14.9999 31.1333L15.1999 31.2667ZM16.7999 31.6L16.9332 31.8L17.0665 31.5333L16.7999 31.6Z" fill="#964C38"/>
<path fill-rule="evenodd" clip-rule="evenodd" d="M15.9332 30.8667L15.7332 30.8V31L15.9332 30.8667ZM16.5332 31.4667L16.3332 31.2667L16.5999 31.2L16.5332 31.4667ZM14.5999 32.1333L14.7332 31.9333L14.7999 32.1333H14.5999ZM15.6665 32.2L15.5332 32.0667L15.7999 32L15.6665 32.2ZM16.0665 32.8667L15.9332 33.0667L16.1999 33.1333L16.0665 32.8667ZM14.5332 31.6667L14.6665 31.4667L14.7999 31.6667H14.5332Z" fill="#964C38"/>
<path fill-rule="evenodd" clip-rule="evenodd" d="M14.7332 31.8H14.5332L14.5999 31.6L14.7332 31.8ZM15.0665 32.8L15.2665 32.8666L15.1332 33.0666L15.0665 32.8Z" fill="#964C38"/>
<path fill-rule="evenodd" clip-rule="evenodd" d="M15.5999 31.0667L15.6665 31.2667L15.8665 31.1333L15.5999 31.0667ZM15.9999 31.5333L15.7999 31.6L15.9999 31.8V31.5333ZM14.5999 31.8667L14.5332 31.6667L14.4665 31.8667H14.5999ZM14.4665 32.5333L14.3999 32.3333L14.3332 32.6L14.4665 32.5333ZM14.9332 31.8667V31.6667L15.1332 31.7333L14.9332 31.8667ZM14.5332 32.2667L14.3999 32L14.2665 32.2667H14.5332ZM14.6665 32.5333V32.3333L14.8665 32.4L14.6665 32.5333ZM16.9999 32.7333L16.9332 32.5333L17.1999 32.6L16.9999 32.7333ZM16.1332 31.6L16.2665 31.8L16.0665 31.8667L16.1332 31.6Z" fill="#964C38"/>
<path fill-rule="evenodd" clip-rule="evenodd" d="M34.4665 25.9333C34.5332 26 34.6665 26 34.7332 26C34.8665 26 34.9999 25.9333 35.1332 25.8C35.2603 25.5755 35.2036 25.2917 34.9999 25.1333C34.1761 24.5449 33.1446 24.7874 32.8679 24.8525C32.8311 24.8611 32.8077 24.8667 32.7999 24.8667C32.5332 24.9333 32.3999 25.2 32.4665 25.4667C32.5332 25.7333 32.7999 25.8667 33.0665 25.8C33.0762 25.8 33.1012 25.7944 33.1386 25.786C33.3594 25.7367 34.0105 25.5913 34.4665 25.9333ZM24.5999 27.3333C24.6666 27.4 24.7999 27.4 24.8666 27.4C24.9642 27.4 25.0618 27.3643 25.1855 27.319C25.2308 27.3024 25.2796 27.2845 25.3332 27.2667C25.3332 27.2 26.1332 26.0667 27.9332 26.2C28.1999 26.2 28.4666 26 28.4666 25.7333C28.4666 25.4667 28.2666 25.2 27.9999 25.2C25.7667 25.0139 24.6879 26.3863 24.4951 26.6317C24.4807 26.65 24.4712 26.662 24.4666 26.6667C24.3395 26.8912 24.3962 27.175 24.5999 27.3333Z" fill="#AF361A"/>
<circle cx="27.2665" cy="30" r="0.933334" fill="#4F2B23"/>
<ellipse cx="34.1999" cy="29.5333" rx="0.933327" ry="0.933332" fill="#4F2B23"/>
<path d="M31.1332 35.6667C30.9332 35.6667 30.7332 35.5333 30.6665 35.2667C30.5999 35 30.7999 34.7333 31.0665 34.7333C31.0665 34.7333 31.7999 34.6 31.8665 34C31.9332 33.4 31.3332 31.7333 30.9999 30.8667C30.8665 30.6 30.9999 30.3333 31.2665 30.2667C31.5332 30.1333 31.7999 30.2667 31.8665 30.5333C31.9999 30.8 32.8665 33.0667 32.7999 34.1333C32.7332 35.1333 31.7999 35.6667 31.2665 35.7333C31.1999 35.6667 31.1332 35.6667 31.1332 35.6667Z" fill="#B4603F"/>
<path d="M28.8666 38.4666C26.3332 38.3333 25.2666 36.5333 24.9999 35.5333C24.9332 35.2666 25.0666 35 25.3332 34.9333C25.5999 34.8666 25.8666 35 25.9332 35.2666C25.9332 35.3333 26.4666 37.3333 28.8666 37.4666C29.1332 37.4666 29.3332 37.7333 29.3332 37.9333C29.3332 38.2666 29.1332 38.4666 28.8666 38.4666Z" fill="#CF7653"/>
<path fill-rule="evenodd" clip-rule="evenodd" d="M24.5332 31.0667C24.5332 33.4667 25.9999 35.4667 27.8665 35.4667C29.6665 35.4667 31.1999 33.4667 31.1999 31.0667C31.1999 28.6667 29.6665 26.6667 27.8665 26.6667C26.0665 26.6667 24.5332 28.6667 24.5332 31.0667ZM25.1999 31.0667C25.1999 29 26.3999 27.3333 27.8665 27.3333C29.3332 27.3333 30.5332 29 30.5332 31.0667C30.5332 33.1333 29.3332 34.8 27.8665 34.8C26.3999 34.8 25.1999 33.1333 25.1999 31.0667Z" fill="white"/>
<path fill-rule="evenodd" clip-rule="evenodd" d="M30.3998 29.8L30.9998 30.1333C30.9998 30.1333 31.1998 29.7333 31.4665 29.8C31.8665 29.8 32.1999 30.0667 32.1999 30.0667L32.5999 29.5333C32.5999 29.4667 32.1332 29.1333 31.4665 29.1333C30.7998 29.1333 30.3998 29.8 30.3998 29.8ZM19.8245 29.298L19.7112 29.9553L24.7112 30.822L24.8245 30.1647L19.8245 29.298Z" fill="white"/>
<path d="M17.8665 14.3333C17.8665 14.3333 14.5332 13 11.8665 17.6667C8.93318 22.8667 12.7332 29.7333 12.7332 29.7333C12.7332 29.7333 13.8665 28.0667 16.0665 28.4C17.8665 28.6667 18.3998 29.6667 18.9332 30.2667C19.4665 30.8 21.5998 30.3333 22.3332 27.8667C22.8665 25.9333 22.8665 24.0667 22.1998 22.7333C21.5332 21.4 20.9332 19.8667 21.8665 20.5333C22.7998 21.2 24.3998 22.0667 26.8665 22.4667C29.3332 22.8667 34.0665 23.2667 36.4665 21.2C38.8665 19.2 38.9998 17.4667 38.9332 16.0667C38.8665 14.6667 38.1332 13.8667 38.1332 13.8667C38.1332 13.8667 36.7998 14.6 36.1332 14.6667C35.4665 14.7333 34.9332 14.8 34.9998 13.9333C35.1332 11.9333 33.9998 11.2667 33.9998 11.2667C33.9998 11.2667 33.5332 11.8667 32.9998 12.2C31.8665 12.8667 31.1998 12.9333 30.0665 12.5333C28.5998 12.0667 27.0665 10.7333 24.0665 10.6667C21.9332 10.7333 19.5332 11.8667 17.8665 14.3333Z" fill="#C94112"/>
<path fill-rule="evenodd" clip-rule="evenodd" d="M25.7332 11.7333L25.4666 10.9333L26.3999 11.1333L25.7332 11.7333ZM32.5332 13.3333L31.8665 12.8L32.2665 12.6667L32.7332 12.4667L32.5332 13.3333ZM33.9999 11.4L33.5999 11.9333L34.2665 12L33.9999 11.4ZM30.6666 14.2667L31.3999 13.7333V14.8L30.6666 14.2667ZM29.0665 12.7333L28.8665 13.0667L29.3332 13.1333L29.0665 12.7333ZM23.1332 11.6667L23.3999 11.2L23.7332 11.8L23.1332 11.6667ZM23.9999 11.7333L23.7999 12.2667L24.3332 12.3333L23.9999 11.7333ZM23.3332 12.6667L22.7332 12L23.8665 11.8L23.3332 12.6667Z" fill="#FF593E"/>
<path fill-rule="evenodd" clip-rule="evenodd" d="M22.7332 12L22.0665 11.4667L22.9332 11.1333L22.7332 12ZM24.2665 12.1333L24.9999 12.0667L24.5999 12.8667L24.2665 12.1333ZM32.3999 14.6667L32.1332 14.8667L32.3999 15.0667V14.6667ZM29.7332 13.4667L29.9999 13.2667L30.0665 13.6667L29.7332 13.4667ZM30.5999 14L30.8666 13.6667L30.3999 13.5333L30.5999 14ZM33.6666 14.6L33.9332 14.4L33.9999 14.7333L33.6666 14.6ZM33.0665 13.6L32.7332 13.2667L32.5332 13.8L33.0665 13.6ZM34.1332 12.1333L34.4666 12.4667L33.9332 12.7333L34.1332 12.1333Z" fill="#FF593E"/>
<path fill-rule="evenodd" clip-rule="evenodd" d="M25.0665 11.2666L24.5998 10.8666L24.3998 11.5333L25.0665 11.2666ZM28.3332 12.1333L27.9332 11.7333L27.7331 12.3333L28.3332 12.1333ZM30.3332 12.7333L30.0665 13.2L29.7331 12.6666L30.3332 12.7333ZM30.6665 13.4666L30.3332 13.1333L30.1332 13.6666L30.6665 13.4666ZM31.8665 13.8L32.1998 14.1333L31.6665 14.4L31.8665 13.8ZM30.2665 14L30.6665 14.3333L30.0665 14.6L30.2665 14ZM28.7998 12.2666L29.1998 12.6L28.6665 12.8L28.7998 12.2666ZM24.3332 11.2L23.8665 11.6666L23.6665 10.9333L24.3332 11.2ZM26.8665 11.4666L26.5332 11.1333L26.3332 11.7333L26.8665 11.4666ZM25.3332 11.9333L24.8665 11.4L25.7332 11.2L25.3332 11.9333Z" fill="#FF593E"/>
<path fill-rule="evenodd" clip-rule="evenodd" d="M24.9332 10.8L25.3998 10.9333L24.9998 11.2667L24.9332 10.8ZM22.5999 10.8667L23.0665 11.4L23.4665 10.8L22.5999 10.8667ZM24.7998 12.2L24.3998 11.6L25.1998 11.4L24.7998 12.2ZM25.0665 12.6667L24.9332 12L25.7332 12.2L25.0665 12.6667ZM33.3332 12.8L33.2665 12.2L32.7332 12.5333L33.3332 12.8ZM30.5999 13.5333L30.3332 12.8667L31.1332 13L30.5999 13.5333ZM29.1332 12.3333L29.3332 13.0667L29.8665 12.6L29.1332 12.3333ZM28.3999 12.6L28.2665 11.8667L28.9999 12.2L28.3999 12.6Z" fill="#FF593E"/>
<path fill-rule="evenodd" clip-rule="evenodd" d="M23.4665 10.8L23.9332 10.9333L23.5332 11.3333L23.4665 10.8ZM22.2665 11.0667H22.7332L22.5332 11.5333L22.2665 11.0667ZM31.7999 16.2667L31.5999 16.4667L31.8665 16.6L31.7999 16.2667ZM32.9999 15.3333L33.1999 15.4667L32.9332 15.6L32.9999 15.3333ZM32.7332 14.3333L32.8665 14.6667L33.0665 14.4L32.7332 14.3333ZM29.6665 13.3333L29.5332 13H29.8665L29.6665 13.3333ZM32.1332 15.3333L31.9332 15.5333L32.1999 15.6L32.1332 15.3333ZM24.7999 15.6L24.9999 15.4L25.0665 15.6667L24.7999 15.6ZM32.0665 13L31.5999 13.4L32.1999 13.7333L32.0665 13ZM31.1999 15.8L31.4665 15.9333L31.1999 16.0667V15.8ZM31.6665 15.2667L31.8665 15.3333L31.7999 15.0667L31.6665 15.2667ZM30.2665 15.2667L29.8665 15.2L30.1332 14.8L30.2665 15.2667Z" fill="#FF593E"/>
<path fill-rule="evenodd" clip-rule="evenodd" d="M24.3999 11.3333L24.6665 10.9333L24.0665 10.8666L24.3999 11.3333ZM27.5999 11.6666L27.3332 12.0666L26.9999 11.4666L27.5999 11.6666ZM31.7999 12.8666L31.5999 13.4L31.1332 12.9333L31.7999 12.8666ZM29.5999 15.8V15.5333L29.8665 15.7333L29.5999 15.8ZM30.7999 13.2666L31.0665 13.8L31.3332 13.4L30.7999 13.2666ZM32.3999 16.6V16.3333L32.6665 16.5333L32.3999 16.6ZM30.8665 16.3333L30.5332 16.4L30.7332 16.6L30.8665 16.3333ZM25.7332 16.8666L26.0665 16.8L25.9332 17.1333L25.7332 16.8666ZM29.7999 16.9333L29.9332 17.2L30.0665 16.9333H29.7999ZM33.5999 14.0666L33.3999 13.7333L33.7999 13.6666L33.5999 14.0666ZM28.8665 16.5333L29.0665 16.2H28.6665L28.8665 16.5333ZM26.2665 11.4666L26.8665 11.4L26.5999 12.0666L26.2665 11.4666ZM30.0666 14.1333L30.3332 13.6H29.6666L30.0666 14.1333ZM25.5332 14.7333L26.0665 14.4V15.0666L25.5332 14.7333ZM27.9999 15.2666L27.5332 15.5333L27.9999 15.8V15.2666ZM26.3332 15.8666L26.1999 15.6666L26.4665 15.6L26.3332 15.8666Z" fill="#FF593E"/>
<path fill-rule="evenodd" clip-rule="evenodd" d="M27.7332 11.8666L26.9332 12.2666L27.5999 12.8666L27.8665 12.4666L27.7332 11.8666ZM24.5999 12.7333L24.4666 13.4L25.1999 13.1333L24.5999 12.7333ZM24.9332 14.2L25.0666 14L25.1999 14.2H24.9332ZM27.0665 15.8666L27.2665 15.9333L27.0665 16.0666V15.8666ZM26.5332 14.8666L26.3332 15.2L26.7999 15.2666L26.5332 14.8666ZM27.9999 17.2666L28.1999 17.3333L28.0666 17.5333L27.9999 17.2666ZM24.1332 15.9333L23.9999 15.4L24.5999 15.5333L24.1332 15.9333ZM26.5332 13L27.0665 12.7333L27.1999 13.0666L26.9999 13.4666L26.5332 13Z" fill="#FF593E"/>
<path fill-rule="evenodd" clip-rule="evenodd" d="M26.3999 11.8L25.9999 11.6667L25.5332 11.8L25.9332 12.4667L26.3999 11.8ZM26.2665 12.2667L27.3332 12.4L26.6665 13.1333L26.2665 12.2667ZM27.1332 13.6L26.6665 13.3333L26.2665 13.4L26.3999 14.3333L27.1332 13.6ZM23.6665 15.4L23.0665 15.7333L23.7332 16.0667L23.6665 15.4ZM28.9332 13.1333L29.7999 13.3333L29.0665 14.0667L28.9332 13.1333Z" fill="#FF593E"/>
<path d="M30.1332 13.9333L29.2665 13.7333L29.3999 14.6666L30.1332 13.9333Z" fill="#FF593E"/>
<path fill-rule="evenodd" clip-rule="evenodd" d="M23.9999 12.4L24.4665 13.0667L23.4665 13.2L23.9999 12.4ZM24.9999 13.1333L25.3998 12.8L25.8665 13.4667L24.8665 13.5333L24.9999 13.1333ZM29.3332 14.2667L29.6665 14.8L28.9332 14.8667L29.3332 14.2667ZM25.1332 14L24.5332 13.6667L24.3998 14.4667L25.1332 14ZM28.5332 15.0667L28.7999 14.4667L27.9999 14.4L28.5332 15.0667ZM27.7332 14.8667L27.1332 15.1333L27.2665 14.3333L27.7332 14.8667ZM32.7998 13.2L33.2665 13.0667L32.8665 12.6667L32.7998 13.2ZM23.9332 15.1333L23.3332 15.3333L23.4665 14.6L23.9332 15.1333Z" fill="#FF593E"/>
<path fill-rule="evenodd" clip-rule="evenodd" d="M33.6665 12.4667L33.3332 12.1333L33.8665 11.9333L33.6665 12.4667ZM21.1998 15L20.7332 15.2L20.8665 14.6L21.1998 15ZM26.9332 14.7333L26.7998 14.1333L26.1998 14.5333L26.9332 14.7333ZM25.9998 12.5333L26.8665 12.8L26.1332 13.4667L25.9998 12.5333ZM28.8665 12.9333L27.9998 12.7333L28.1332 13.6667L28.8665 12.9333ZM27.8665 13.7333L28.6665 13.9333L27.9331 14.6667L27.8665 13.7333ZM27.6665 13.8L27.1998 14.0667L27.5998 14.4667L27.6665 13.8ZM25.5332 15.4667L25.7332 15.6667L25.4665 15.7333L25.5332 15.4667Z" fill="#FF593E"/>
<path fill-rule="evenodd" clip-rule="evenodd" d="M27.9999 12.8L28.0665 12.4666L28.3332 12.6666L27.9999 12.8ZM26.8665 14.1333L26.9999 14.4666L27.2665 14.1333H26.8665ZM25.3332 14.8666L24.9999 14.4666L24.7999 15.0666L25.3332 14.8666ZM28.9999 14.2L28.7999 13.6666L28.3332 14.1333L28.9999 14.2ZM25.9332 13.5333L26.4665 13.7333L25.9332 14.2V13.5333Z" fill="#FF593E"/>
<path fill-rule="evenodd" clip-rule="evenodd" d="M27.7332 12.8L27.5332 13H27.7999L27.7332 12.8ZM27.3999 13.1333L27.9999 13V13.8667L27.3332 13.4L27.3999 13.1333ZM24.2666 13L24.7332 13.2L24.2666 13.6V13ZM25.3999 13.5333L25.9332 13.8L25.3999 14.2V13.5333ZM28.6665 13.5333L28.5999 13.3333L28.3332 13.5333H28.6665ZM29.3999 16.4V16.0667L29.7332 16.2666L29.3999 16.4ZM28.0665 16.5333L28.1999 16.8L28.3332 16.5333H28.0665ZM28.9999 15.6667L28.6666 15.8V15.5333L28.9999 15.6667ZM27.8665 14.2667L27.9332 13.9333L27.5332 14L27.8665 14.2667ZM28.1332 14.4667L28.2666 14.2667L28.4666 14.4667H28.1332ZM27.1332 15.3333L26.9999 15.6H27.2666L27.1332 15.3333ZM28.8665 12.9333L28.9999 13.0667L28.7332 13.2L28.8665 12.9333ZM31.1999 15.1333L31.2666 14.8L30.9332 14.8667L31.1999 15.1333ZM30.6666 15.6L30.5999 15.8666L30.3332 15.6H30.6666ZM24.2666 16.8L24.3332 16.4667L23.9999 16.5333L24.2666 16.8ZM30.4665 14.8L30.3999 14.4L30.8666 14.5333L30.4665 14.8Z" fill="#FF593E"/>
<path fill-rule="evenodd" clip-rule="evenodd" d="M25.5332 13.1333L25.1332 12.6666L25.7999 12.4666L25.5332 13.1333ZM28.3332 13.7333L28.2665 13.4L28.6665 13.5333L28.3332 13.7333ZM30.6665 15.2L30.5332 15L30.3998 15.2666L30.6665 15.2ZM23.5332 17L23.7332 17.2L23.3999 17.2666L23.5332 17ZM28.2665 15.0666L27.9999 15.1333L28.2665 15.3333V15.0666ZM27.8665 14.8L27.5999 14.7333L27.7999 14.5333L27.8665 14.8ZM13.2665 15.8L14.1999 16.1333L14.1332 15L13.2665 15.8ZM22.7332 16L23.0665 15.9333L22.9332 16.2666L22.7332 16ZM20.8665 13.8666L20.1332 14L20.6665 14.6666L20.8665 13.8666ZM18.7332 15.4666L18.9332 15.7333H18.5332L18.7332 15.4666ZM21.4665 16.2L21.2665 15.8L20.9332 16.1333L21.4665 16.2ZM15.9332 16.1333V15.4666L16.6665 15.8666L15.9332 16.1333ZM21.9999 12.7333V13.4L22.6665 13.1333L21.9999 12.7333ZM23.1332 13.0666L23.1999 12.6666L23.5999 12.8666L23.1332 13.0666ZM23.0665 13.4666V13.8666L23.4665 13.7333L23.0665 13.4666ZM11.3332 19.0666L11.7332 18.0666L12.2665 19L11.3332 19.0666ZM11.2665 19.1333L11.0665 20L11.8665 19.6L11.2665 19.1333ZM13.1332 20.8V20.4L13.5332 20.6666L13.1332 20.8ZM12.1999 20.3333V20.6666L12.5999 20.5333L12.1999 20.3333ZM17.9999 14.4L18.2665 13.8666L18.6665 14.4H17.9999ZM17.1332 15.9333L16.9999 15.6666L16.7332 15.9333H17.1332ZM16.6665 16L16.9332 16.5333L16.2665 16.4666L16.6665 16ZM21.5332 14.2666L21.2665 14.8666H21.9999L21.5332 14.2666ZM19.9999 16.2V15.8666L20.3332 16.0666L19.9999 16.2Z" fill="#FF593E"/>
<path fill-rule="evenodd" clip-rule="evenodd" d="M21.6665 13.1333L20.9998 12.8666L21.5999 12.3333L21.6665 13.1333ZM23.4665 14.0666L23.5332 13.2L24.4665 13.7333L23.4665 14.0666ZM14.8665 19V18.7333L15.1998 18.9333L14.8665 19ZM14.2665 20.4L14.5998 20.4666L14.3332 20.7333L14.2665 20.4ZM12.8665 19.1333L12.7999 19.8666L13.4665 19.6L12.8665 19.1333ZM11.8665 19.8666V19.1333L12.5332 19.6L11.8665 19.8666ZM12.5998 21.2666L12.5332 21.6L12.9332 21.4666L12.5998 21.2666ZM22.0665 14.1333L22.7998 14.4L22.7332 13.4666L22.0665 14.1333ZM23.1332 12.9333L22.5998 13L22.9332 13.5333L23.1332 12.9333ZM14.1998 20.1333H13.9332L14.1332 19.8666L14.1998 20.1333ZM14.1998 18.6V18.8L14.3998 18.6666L14.1998 18.6ZM16.8665 19.2666L17.0665 19.1333V19.4L16.8665 19.2666ZM14.0665 21.6L13.8665 21.7333L14.0665 21.8666V21.6ZM12.8665 22.4666L12.9998 22.3333L13.0665 22.6L12.8665 22.4666ZM15.6665 18.9333L15.7332 19.1333L15.9332 18.9333H15.6665ZM14.5998 19.6666L14.4665 19.3333H14.8665L14.5998 19.6666ZM17.3998 18.8L17.2665 18.8666L17.4665 19L17.3998 18.8ZM22.5332 14.4666L22.7998 14.7333L22.3998 14.8666L22.5332 14.4666ZM33.7998 13.2666L34.1332 13.5333L34.1998 13.1333L33.7998 13.2666ZM36.2665 15.4666L35.8665 14.8666H36.1998L36.6665 14.8L36.2665 15.4666ZM38.1332 14L37.5998 14.4L38.1998 14.6666L38.1332 14ZM35.3999 16.8666L35.7332 16.8L35.6665 17.1333L35.3999 16.8666ZM37.3332 16.8666L36.9999 17L37.2665 17.2666L37.3332 16.8666ZM36.4665 15.4666L36.7332 15.9333L36.1332 16L36.4665 15.4666ZM38.3332 15.2L38.0665 14.8L37.7332 15.2666L38.3332 15.2ZM35.4665 15.8L35.7332 16.2L35.1332 16.2666L35.4665 15.8ZM35.0665 15.0666L34.7998 14.6L34.5332 15.1333L35.0665 15.0666ZM37.2665 14.4666V15.0666L36.6665 14.7333L37.2665 14.4666ZM36.2665 17.7333L36.1332 17.5333L35.9998 17.8L36.2665 17.7333ZM36.1998 16.8666V16.5333L36.5332 16.6666L36.1998 16.8666ZM35.3332 17.3333L35.0665 17.4666L35.3332 17.6666V17.3333ZM35.0665 14.9333L35.7332 14.8666L35.3998 15.5333L35.0665 14.9333Z" fill="#FF593E"/>
<path fill-rule="evenodd" clip-rule="evenodd" d="M20.5999 12.3333L20.2665 12.8L19.8665 12.2L20.5999 12.3333ZM19.7332 13.1333L19.8665 12.8L20.0665 13.1333H19.7332ZM20.2665 12.9333L20.1332 13.2L20.4665 13.2666L20.2665 12.9333ZM17.4665 14.2666L17.5332 14.8666L18.1999 14.5333L17.4665 14.2666ZM37.2665 14.5333L37.5332 14.9333L37.8666 14.5333H37.2665ZM36.9999 15.4L36.5332 15.4666L36.7332 14.9333L36.9999 15.4ZM34.9999 15.8L34.7999 15.6666L34.9999 15.4666V15.8ZM35.0665 17.2666L34.8665 17.1333L35.0665 17V17.2666ZM36.9332 16.1333L37.0666 16.5333L37.3332 16.1333H36.9332ZM37.7332 16.1333L37.4665 15.8L37.9332 15.7333L37.7332 16.1333ZM13.5999 17.9333L13.3999 17.6H13.7999L13.5999 17.9333ZM12.7332 17.1333L12.9999 17.6666L13.3999 17.0666L12.7332 17.1333ZM13.3999 16.6666L12.9332 16.2L13.5999 15.9333L13.3999 16.6666ZM23.3999 14.2L22.7332 14.0666L22.9332 14.8L23.3999 14.2ZM22.3999 14.9333L22.9332 15.0667L22.5332 15.6L22.3999 14.9333ZM29.6665 15.1333L29.0665 15L29.2665 15.6666L29.6665 15.1333Z" fill="#FF593E"/>
<path fill-rule="evenodd" clip-rule="evenodd" d="M20.4665 12.3333L20.3999 11.9333L20.8665 12.1333L20.4665 12.3333ZM19.7332 12.3333L19.9332 12.9333L19.1998 12.8L19.7332 12.3333ZM19.9332 13.0667L20.3332 13.5333L19.6665 13.7333L19.9332 13.0667ZM19.3999 13.6L19.7332 13.0667L19.0665 12.9333L19.3999 13.6ZM21.9332 12.8L21.5999 12.7333L21.8665 12.4L21.9332 12.8ZM20.9999 12.8L20.4665 12.6L20.5332 13.2L20.9999 12.8ZM22.7999 12L21.9999 12.3333L22.6665 13L22.7999 12ZM12.5999 21V20.7333L12.9332 20.9333L12.5999 21ZM13.1332 17.5333L13.2665 17.8L13.3999 17.5333H13.1332ZM11.5332 21.6667L11.7999 21.6L11.7332 21.8667L11.5332 21.6667ZM12.1999 21.2667L12.1332 21L11.9332 21.2667H12.1999ZM12.7998 18.9333L12.1998 18.5333L12.9332 18.1333L12.7998 18.9333ZM14.5999 17.3333L14.8665 17.4V17.0667L14.5999 17.3333ZM12.4665 16.8667L12.7999 16.3333L13.1999 17L12.4665 16.8667ZM13.6665 18.8667L13.5999 19.3333L14.1332 19.1333L13.6665 18.8667ZM13.7332 16.3333L14.2665 16.4L13.8665 16.9333L13.7332 16.3333ZM15.1332 17.8L14.5332 17.8667L14.8665 18.4L15.1332 17.8ZM13.7332 17.0667L14.3332 17L14.1332 17.6L13.7332 17.0667ZM15.7332 15.5333L15.1999 15.6L15.5332 16.1333L15.7332 15.5333ZM12.7332 18L11.7999 17.8667L12.3999 16.9333L12.7332 18ZM11.0665 20.1333L10.8665 20.9333L11.8665 20.7333L11.0665 20.1333ZM13.4665 19.6667L13.8665 19.5333L13.7999 20.0667L13.4665 19.6667ZM12.1999 20L12.6665 20.1333L12.5999 19.6L12.1999 20ZM13.2665 21.4L12.9999 21.5333V21.2667L13.2665 21.4ZM12.1999 21.8667L11.9999 21.9333L12.1332 22.1333L12.1999 21.8667ZM17.6665 15.9333L17.9999 15.6667L18.0665 16.1333L17.6665 15.9333ZM17.4665 14.9333L17.1332 15.1333L17.5332 15.4L17.4665 14.9333ZM15.5999 15.1333L16.1332 14.7333L16.2665 15.4667L15.5999 15.1333Z" fill="#FF593E"/>
<path fill-rule="evenodd" clip-rule="evenodd" d="M19.0665 14.4667L18.7998 14.2L19.2665 14.0667L19.0665 14.4667ZM20.1332 14.8L19.9999 14.6L20.2665 14.5333L20.1332 14.8ZM18.1332 14.8L18.3998 14.6V15L18.1332 14.8ZM16.7332 16L16.9999 15.8L17.0665 16.2L16.7332 16ZM17.7332 15.6666L17.9332 15.8666L18.0665 15.6L17.7332 15.6666ZM13.3332 18.6L13.1332 18.1333L13.7332 18.2L13.3332 18.6ZM15.1999 17L15.3332 17.2L15.4665 16.9333L15.1999 17ZM19.0665 14.7333L19.1998 14.8667L19.3332 14.6667L19.0665 14.7333ZM15.3332 16.2667L15.4665 16.4666L15.5998 16.2L15.3332 16.2667ZM17.1332 15.6667L17.3998 15.4667L17.4665 15.8667L17.1332 15.6667ZM16.8665 15.4667L17.0665 15.0667H16.5332L16.8665 15.4667ZM16.5998 14.2L16.3998 14.8L15.8665 14.2H16.5998ZM17.9998 15.3333L17.7998 15.2L17.7332 15.4667L17.9998 15.3333ZM17.0665 16.2667L17.2665 16.1333L17.3332 16.4L17.0665 16.2667ZM16.2665 15.9333L16.0665 15.7333L15.9998 16.0666L16.2665 15.9333ZM12.1998 22.3333L11.9998 22.5333L11.9332 22.2L12.1998 22.3333ZM11.1332 23.7333L11.2665 23.6L11.0665 23.4667L11.1332 23.7333ZM11.5332 22.6L11.3332 22.8L11.2665 22.5333L11.5332 22.6ZM11.1332 24.2L11.3332 24.4L11.3998 24.0666L11.1332 24.2ZM11.7998 23.3333L11.4665 23.4667V23.1333L11.7998 23.3333Z" fill="#FF593E"/>
<path fill-rule="evenodd" clip-rule="evenodd" d="M14.9999 16.8L14.5998 16.4666L15.1999 16.2L14.9999 16.8ZM11.2665 21.6L10.9332 21.2666L11.4665 21.1333L11.2665 21.6ZM12.4665 23.0666L12.1999 23.2V22.8666L12.4665 23.0666ZM11.1999 21.6666L10.8665 22.2L11.6665 22.2666L11.1999 21.6666ZM10.8665 23.0666V22.4666L11.3332 22.8L10.8665 23.0666ZM11.1332 23.8L10.9999 24L11.2665 24.0666L11.1332 23.8Z" fill="#FF593E"/>
<path fill-rule="evenodd" clip-rule="evenodd" d="M21.9998 11.8666L21.3998 11.3333L22.1998 11.0667L21.9998 11.8666ZM21.1998 13.6L21.5332 13.7333V13.3333L21.1998 13.6ZM21.5998 13.6667L22.1332 13.8L21.7332 14.2667L21.5998 13.6667ZM14.3998 15.3333L14.6665 14.7333L15.0665 15.4L14.3998 15.3333ZM14.9999 16.2L15.1332 16L15.3332 16.2667L14.9999 16.2ZM14.6665 15.6666L14.4665 16.0666L14.9998 16.1333L14.6665 15.6666ZM16.5332 16.6L16.9998 16.7333L16.6665 17.1333L16.5332 16.6ZM14.7998 16.7333L14.3998 16.6666L14.4665 17.1333L14.7998 16.7333ZM20.5998 13.2666L20.5332 13.8667L21.1332 13.6667L20.5998 13.2666ZM21.1332 12.2667L20.5999 11.8L21.3998 11.5333L21.1332 12.2667ZM18.4665 13.7333L19.1332 13.8667L18.9332 13.1333L18.4665 13.7333ZM20.9999 14L21.3332 14.0667L21.0665 14.3333L20.9999 14Z" fill="#FF593E"/>
<path fill-rule="evenodd" clip-rule="evenodd" d="M21.7332 12.2L21.2665 11.8L21.9332 11.6L21.7332 12.2ZM16.7332 14.2L16.9998 14.7333L17.3998 14.2H16.7332ZM20.4665 15.6L20.6665 15.6666L20.5332 15.9333L20.4665 15.6ZM15.7998 16.6666L15.9998 16.7333L15.8665 17L15.7998 16.6666ZM14.8665 14.6L15.4665 15.1333L15.7332 14.2666L14.8665 14.6ZM17.4665 17.8L17.2665 17.5333L17.5998 17.4L17.4665 17.8ZM21.7332 15.4L21.9998 15.6L22.1332 15.3333L21.7332 15.4ZM19.4665 14.6666L19.2665 14.2666L19.7998 14.3333L19.4665 14.6666ZM19.9332 13.7333L19.6665 14.0666L20.1332 14.1333L19.9332 13.7333ZM19.3999 13.9333L19.1999 13.5333H19.7332L19.3999 13.9333ZM18.5998 13.9333L18.7998 14.3333L19.1332 14L18.5998 13.9333ZM18.5332 15L18.7999 15.0666L18.5999 15.2666L18.5332 15ZM19.8665 15.4L19.5998 15.3333L19.6665 15.6666L19.8665 15.4ZM17.7998 18L17.5998 17.8L17.9332 17.6666L17.7998 18ZM17.5332 16.8666L17.4665 17.0666L17.7332 17.1333L17.5332 16.8666ZM16.1332 16.2L16.2665 16.4666H15.8665L16.1332 16.2Z" fill="#FF593E"/>
<path fill-rule="evenodd" clip-rule="evenodd" d="M15.7332 16.8L15.9998 16.5333L16.0665 17L15.7332 16.8ZM16.5998 18.3333V18L16.9332 18.2L16.5998 18.3333Z" fill="#FF593E"/>
<path fill-rule="evenodd" clip-rule="evenodd" d="M23.8666 14.2L24.4666 14.4L23.9999 14.9333L23.8666 14.2ZM15.7999 16.5333L15.9332 16.7333L16.0666 16.4666L15.7999 16.5333ZM14.3332 17.6666L13.9332 17.9333L14.4666 18.1333L14.3332 17.6666ZM15.5999 18.1333L15.3332 17.9333L15.6666 17.8L15.5999 18.1333ZM16.7332 17.2L16.9999 17.4L17.0666 17.0666L16.7332 17.2ZM15.7999 18.8666L15.5999 18.6666L15.9332 18.5333L15.7999 18.8666ZM15.9332 17.1333L15.7999 17.3333H16.1332L15.9332 17.1333ZM19.9999 14.8L19.7332 14.7333L19.7999 15.0666L19.9999 14.8ZM16.2666 17.9333L16.5332 18L16.3332 18.2666L16.2666 17.9333Z" fill="#FF593E"/>
<path fill-rule="evenodd" clip-rule="evenodd" d="M21.6666 20.1333L21.9999 20.4L22.1332 20L21.6666 20.1333ZM23.0666 20.4667L23.2666 20.2L23.4666 20.6L23.0666 20.4667ZM23.8666 20.9333L24.1332 20.8L23.8666 20.6V20.9333ZM24.9999 21.2667L24.7332 21.6L24.5332 21.2L24.9999 21.2667ZM29.9999 22.3333L29.6666 22.8L29.3999 22.2L29.9999 22.3333ZM30.9332 22.8L30.3332 22L29.7332 22.8H30.9332ZM29.4666 22.8L28.6666 22.7333L29.2666 22L29.4666 22.8ZM23.5332 21.2L23.1999 20.8L23.7999 20.6L23.5332 21.2Z" fill="#AF2500"/>
<path fill-rule="evenodd" clip-rule="evenodd" d="M25.0665 18.7333L24.9332 18.4L24.7999 18.7333H25.0665ZM22.6665 18.8L22.5332 18.5333L22.3998 18.8H22.6665ZM28.9999 19.3333L29.2665 19.2L28.9999 19.0667V19.3333ZM21.7999 19.5333L21.9999 19.4L21.7999 19.2V19.5333ZM23.3999 21.4L23.7998 21L23.9998 21.6667L23.3999 21.4ZM28.5999 22.0667L28.7999 22.7333L27.9332 22.6667L28.5999 22.0667ZM24.7999 21.9333L24.6665 21.2L24.0665 21.6667L24.7999 21.9333ZM25.3999 22.1333L25.9332 21.6L26.1999 22.2667L25.3999 22.1333ZM24.1999 20.9333L24.3332 21.2667L23.9332 21.2L24.1999 20.9333ZM23.2665 19.4667L23.0665 19.2667L23.3332 19.2L23.2665 19.4667ZM23.8665 19.7333L23.5332 19.6667L23.5998 20.0667L23.8665 19.7333ZM24.6665 19.4667V19.7333L24.3999 19.5333L24.6665 19.4667ZM27.7332 18.8L27.8665 19.0667L27.5999 19.1333L27.7332 18.8ZM25.1332 19.3333L25.3332 19.0667L25.4665 19.4L25.1332 19.3333ZM26.8665 22.4667L27.4665 22.6L27.3332 21.9333L26.8665 22.4667ZM23.5332 20.6L23.8665 20.0667L24.1999 20.6667L23.5332 20.6ZM27.4665 19.9333L27.3999 19.7333L27.1999 19.9333H27.4665ZM29.0665 20.6667L28.7332 21L28.5999 20.5333L29.0665 20.6667ZM27.0665 19.4L27.1999 19.5333L27.2665 19.3333L27.0665 19.4ZM26.6665 18.8667L26.5332 18.8L26.6665 18.6V18.8667ZM29.1999 22.0667L29.3332 21.4L28.5999 21.6L29.1999 22.0667ZM26.8665 22.4L26.1999 22.3333L26.3332 21.8L26.7332 21.6667L26.8665 22.4Z" fill="#AF2500"/>
<path fill-rule="evenodd" clip-rule="evenodd" d="M30.1998 19.9333L30.5999 19.8L30.4665 20.2667L30.1998 19.9333ZM29.5998 20.8667L29.1332 20.6L29.7332 20.2667L29.5998 20.8667ZM27.2665 21.6L26.7332 21.8L26.5999 21.4667L26.8665 21.1333L27.2665 21.6ZM27.7999 22.6L27.3999 22.4L27.9332 21.8L28.1999 22.5333L27.7999 22.6ZM27.9332 21.2L28.3999 21.9333L28.7999 21.6667L28.9999 21.2H27.9332ZM29.3332 21.7333L29.7332 22.4667L30.3332 21.7333H29.3332ZM24.7999 21.9333L25.2665 21.4L25.5332 22.1333L24.7999 21.9333ZM26.1332 20.6667L25.4665 20.8667L25.9332 21.4667L26.1332 20.6667Z" fill="#AF2500"/>
<path fill-rule="evenodd" clip-rule="evenodd" d="M32.7999 20.1333L33.2665 20L33.0665 20.5333L32.7999 20.1333ZM27.7332 22.0667L26.9332 21.8L27.7332 21.1333V22.0667ZM22.5332 20.9333L23.1999 21.2667L23.1332 20.6667L22.5332 20.9333ZM26.7999 20.5333L26.2665 20.7333L26.3999 20.0667L26.7999 20.5333ZM27.8665 20.1333L28.0665 20.3333L28.1999 20.0667L27.8665 20.1333ZM26.9999 20.1333L27.0665 20.4H26.7332L26.9999 20.1333ZM25.7332 22V21.6667L25.3999 21.7333L25.7332 22ZM24.5999 21.0667L24.4665 20.5333L25.0666 20.6667L24.5999 21.0667Z" fill="#AF2500"/>
<path fill-rule="evenodd" clip-rule="evenodd" d="M26.1332 20.2L25.9999 20.5333L26.3332 20.4667L26.1332 20.2ZM28.1332 21.1333L27.6666 20.8667L28.1999 20.4667L28.1332 21.1333ZM27.3999 21.2L26.9332 20.8667L27.4666 20.5333L27.3999 21.2ZM29.0666 21.5333L29.5332 21.8667L29.5999 21.2L29.0666 21.5333ZM25.2666 21.0667L25.1999 20.8L25.4666 20.8667L25.2666 21.0667ZM26.7332 21.5333L26.1332 21.6L26.1999 20.7334L26.8666 21.2667L26.7332 21.5333Z" fill="#AF2500"/>
<path fill-rule="evenodd" clip-rule="evenodd" d="M35.1332 19.2L34.9998 18.8667L35.3332 18.9333L35.1332 19.2ZM25.7332 19.4L25.9998 19.3333L25.7998 19.0667L25.7332 19.4ZM26.3998 19.4667L26.5332 19.2667L26.3332 19.2L26.3998 19.4667ZM25.7998 19.9333L25.6665 20.1333L25.5332 19.9333H25.7998ZM26.2665 21.5333L26.0665 21.6667V21.4667L26.2665 21.5333ZM24.9332 21.4667L24.7998 21.2667L25.1332 21.2L24.9332 21.4667ZM22.7332 20.0667L22.6665 20.4L22.9998 20.3333L22.7332 20.0667ZM24.4665 20V20.4L24.0665 20.2L24.4665 20ZM28.6665 22.0667L28.2665 21.5333L27.9332 22.2L28.6665 22.0667ZM25.5332 20.6667V21L25.1998 20.8667L25.5332 20.6667ZM22.4665 19.5333L22.5998 19.8L22.7332 19.4667L22.4665 19.5333ZM30.1998 19.4667L30.0665 19.2H30.3332L30.1998 19.4667ZM26.1998 19.9333L26.1332 19.6667L26.3998 19.7333L26.1998 19.9333ZM22.4665 27.4667L21.5332 27.6667L22.1332 28.5333L22.4665 27.4667ZM29.5998 20.0667H29.2665L29.3998 19.7333L29.5998 20.0667ZM33.0665 21.4L33.7332 21.3333L33.3332 20.7333L33.0665 21.4ZM32.7332 19.1333L32.7998 19.4L32.9998 19.2L32.7332 19.1333ZM19.9998 28.4667L20.3332 29.1333L19.4665 29.0667L19.9998 28.4667ZM31.7332 22.3333L31.8665 21.6667L31.1332 21.8667L31.7332 22.3333ZM30.5998 21.9333L30.5332 22.2667L30.1998 22L30.5998 21.9333ZM30.7332 21.4667L30.8665 21.0667L30.3998 21.2L30.7332 21.4667ZM22.5998 23.6667L22.7998 24.7333L21.7999 24.2L22.5998 23.6667ZM22.5332 23.6L22.2665 22.7333L21.7999 23.4667L22.5332 23.6ZM20.1332 23L20.3332 23.3333H19.8665L20.1332 23ZM21.1998 23L20.9998 22.6667L20.7332 23H21.1998ZM18.7332 28.9333L18.7999 29.5333L18.1332 29.2667L18.7332 28.9333ZM19.0665 29.2L19.3332 29.4L19.3998 29L19.0665 29.2ZM19.3998 28.9333L18.9998 28.6667L19.5332 28.3333L19.3998 28.9333ZM32.3999 20.8L32.5999 20.4H32.0665L32.3999 20.8ZM34.1332 19.1333L34.0665 19.4667L33.7999 19.2L34.1332 19.1333ZM19.6665 25.7333L19.5332 25.4L19.2665 25.6667L19.6665 25.7333ZM19.3332 23.9333L19.0665 24.0667L19.1332 23.6667L19.3332 23.9333Z" fill="#AF2500"/>
<path fill-rule="evenodd" clip-rule="evenodd" d="M31.1999 20.2667L31.4666 20.5333L31.5999 20.1333L31.1999 20.2667ZM31.8666 20.9333L31.1332 20.6V21.5333L31.8666 20.9333ZM30.4666 20.8L30.2666 21.6667L29.4665 21.0667L30.4666 20.8ZM20.3999 22.3333L20.2665 22.0667L19.9999 22.3333H20.3999ZM21.7332 23.2L22.0665 23.8667L21.2665 23.8L21.7332 23.2ZM20.8665 23.7333L21.1999 24.4L20.3999 24.2667L20.8665 23.7333ZM32.1332 22L32.7332 22.2667L32.1332 22.7333V22ZM36.1332 21.5333L35.5332 21.2L35.3999 21.9333L36.1332 21.5333ZM30.9332 21.4667L31.1999 22.0667H30.6665L30.9332 21.4667ZM19.7332 24L19.5332 24.1333L19.7332 24.3333V24ZM20.1999 25.3333L20.3332 25.4667L20.1332 25.5333L20.1999 25.3333ZM17.5332 26.4L17.6665 26.2H17.3999L17.5332 26.4ZM19.0665 22.6L18.9332 22.8L18.7999 22.6H19.0665ZM19.4666 21.6667L19.5999 21.4667L19.3332 21.4L19.4666 21.6667ZM18.6665 25.7333L18.8665 25.9333L18.5999 26.0667L18.6665 25.7333ZM19.7332 25L19.4665 24.8L19.3332 25.2L19.7332 25ZM17.5332 26.7333L17.3999 26.9333L17.2665 26.7333H17.5332ZM19.5999 29.8L19.8666 30.4L19.1332 30.3333L19.5999 29.8ZM21.4665 25.9333L21.1332 25.7333L21.0665 26.2L21.4665 25.9333ZM21.7999 25.7333L22.3332 26.0667L21.7332 26.4L21.7999 25.7333ZM22.5332 27L21.9332 26.8L22.0665 27.5333L22.5332 27ZM33.6665 22.0667L33.4666 22.3333L33.3332 22L33.6665 22.0667ZM33.8665 22.4667L34.2665 22.3333L33.7332 22.1333L33.8665 22.4667ZM30.9332 21L30.4665 20.8667L30.8665 20.4667L30.9332 21Z" fill="#AF2500"/>
<path fill-rule="evenodd" clip-rule="evenodd" d="M24.5999 20L25.1332 20.2L25.0665 19.5333L24.5999 20ZM31.1332 19.9333L31.5332 20.0667L31.4665 19.6L31.1332 19.9333ZM33.8665 22.2L33.4665 21.6667L34.1999 21.6L33.8665 22.2Z" fill="#AF2500"/>
<path fill-rule="evenodd" clip-rule="evenodd" d="M33.9332 20.6667L33.7999 20.4667L33.6666 20.6667H33.9332ZM33.7332 21.8667L34.1332 21.3333L34.3999 22L33.7332 21.8667ZM31.7999 22.2667L32.1999 22.4L31.8666 22.6667L31.7999 22.2667ZM32.7332 22.6667L33.5332 22.5333L33.2666 22L32.7332 22.6667ZM31.7999 22.8H30.9999L31.1332 22L31.7999 22.8ZM20.6666 22.8L20.5332 22.5333L20.2666 22.8H20.6666ZM21.7332 25.8667L21.5332 26V25.6667L21.7332 25.8667ZM20.9332 21.7333L21.1332 21.5333L20.7999 21.4667L20.9332 21.7333ZM20.9332 22.3333L20.7332 22.2L20.9999 22.0667L20.9332 22.3333ZM22.0665 24.6L21.3999 24.4667L21.6666 25.2667L22.0665 24.6ZM20.2666 26.8667L20.5999 26.8L20.4666 27.1333L20.2666 26.8667ZM22.5999 26.8L22.6666 26.1333L21.9332 26.4L22.5999 26.8ZM20.4666 24.5333L20.6665 25L20.0666 24.9333L20.4666 24.5333ZM21.3332 27.4667L21.7999 27.2667L21.3999 26.8L21.3332 27.4667ZM20.3332 26.2667L19.8666 26.6L19.7999 25.9333L20.3332 26.2667ZM20.9999 26.9333L21.3999 26.6L20.8666 26.3333L20.9999 26.9333ZM20.8666 28.6L20.3999 28.9333L20.3332 28.2667L20.8666 28.6ZM22.7999 24.9333L21.8666 25.3333L22.7332 26.0667L22.7999 24.9333ZM21.8666 21.8667L22.1999 22.6667L21.1999 22.6L21.8666 21.8667ZM20.0666 24.5333L20.3999 24.2L19.9332 24L20.0666 24.5333ZM20.8666 23.4L21.3332 23.2667L21.2666 23.8667L20.8666 23.4ZM20.0666 22.6L19.8666 22.3333L19.7332 22.6H20.0666ZM20.5999 21.4667L20.3999 21.6667L20.3332 21.4L20.5999 21.4667ZM17.7332 28.9333L17.9332 28.5333H17.4666L17.7332 28.9333ZM19.3999 29.9333L19.2666 30.2667L18.9999 29.9333H19.3999ZM20.4666 29.8L20.7999 29.2H19.9999L20.4666 29.8ZM18.3332 28.8L18.1999 29.1333L17.9999 28.8H18.3332ZM19.3332 29H18.9999L19.1999 29.2667L19.3332 29ZM19.1999 27.8667L19.4666 28L19.2666 28.2L19.1999 27.8667ZM21.4666 25.3333L20.9999 25L20.8666 25.6L21.4666 25.3333ZM19.9999 27.2667L20.1999 27.4L19.9999 27.5333V27.2667ZM34.7332 20.4667L34.8665 20.6667H34.5999L34.7332 20.4667ZM35.0666 21.2L34.8666 20.9333L34.5999 21.2667L35.0666 21.2ZM20.1999 28.2667V28L20.4666 28.0667L20.1999 28.2667ZM18.9999 29.8L19.1332 29.4667H18.7999L18.9999 29.8ZM19.5332 30L19.4666 29.5333L19.9999 29.7333L19.5332 30Z" fill="#AF2500"/>
<path fill-rule="evenodd" clip-rule="evenodd" d="M20.3332 19.8667L20.5998 19.9333L20.3998 20.1333L20.3332 19.8667ZM21.1332 20.4L21.1999 20.1333L21.3998 20.3333L21.1332 20.4ZM20.2665 20.9333L20.1998 21.2667L20.5332 21.2L20.2665 20.9333ZM19.9332 28.6L20.0665 28.8667H19.7998L19.9332 28.6ZM18.7999 29.1333L18.9332 28.9333H18.5999L18.7999 29.1333ZM18.7998 29.9333L18.9998 29.6667L19.0665 29.9333H18.7998ZM20.4665 30.2667L20.3332 29.6667L21.0665 29.8667L20.4665 30.2667ZM20.7998 20.8667L20.7332 21.1333L20.9999 21.0667L20.7998 20.8667ZM20.7999 20.4L20.6665 20.6667H20.9998L20.7999 20.4ZM21.5332 23L21.6665 22.8L21.8665 23.0667L21.5332 23ZM21.7332 21.6667L21.3332 21.5333L21.3999 22.0667L21.7332 21.6667ZM21.4665 20.9333L21.6665 21.6L20.8665 21.4L21.4665 20.9333Z" fill="#AF2500"/>
<path fill-rule="evenodd" clip-rule="evenodd" d="M21.4666 20.4667V20.9333L21.0666 20.6667L21.4666 20.4667ZM20.4666 27.4667L20.9999 27.5333L20.5999 28.0667L20.4666 27.4667Z" fill="#AF2500"/>
<path fill-rule="evenodd" clip-rule="evenodd" d="M33.3332 19.5333L33.5999 19.6V19.3333L33.3332 19.5333ZM32.8665 21.2L32.5999 21.0667L32.7999 20.8L32.8665 21.2ZM32.2665 21.4667L31.7332 21.2667L32.1999 20.8667L32.2665 21.4667ZM20.6665 27.4L21.1332 27.2667L20.7332 26.8667L20.6665 27.4ZM21.3332 27.7333L20.7999 28L21.3332 28.2667V27.7333ZM20.4665 28.0667L20.7332 27.9333V28.2L20.4665 28.0667ZM21.0665 28.7333L21.7332 28.4L21.7999 29.0667L21.0665 28.7333ZM19.2665 28.4L18.7332 28.5333L18.8665 28L19.2665 28.4ZM32.7999 21.8L32.3999 21.6V22.0667L32.7999 21.8ZM33.3332 21.4L33.1332 22L32.5999 21.5333L33.3332 21.4ZM35.3332 22L34.7332 21.5333V22.2L35.3332 22ZM19.8665 27.9333L19.5999 28L19.6665 27.7333L19.8665 27.9333ZM20.4665 30.2667L20.0665 29.8L19.7999 30.4L20.4665 30.2667ZM20.9332 28.9333L21.7332 29.2L20.9999 29.8L20.9332 28.9333ZM18.1332 27.8667L17.7999 27.8L17.9332 28.1333L18.1332 27.8667ZM32.0665 19.4667L32.2665 19.6667L31.9332 19.7333L32.0665 19.4667ZM36.2665 21.4667V20.7333L35.5332 21.1333L36.2665 21.4667ZM35.8665 20.8667L35.2665 20.6667L35.8665 20.2667V20.8667Z" fill="#AF2500"/>
<path fill-rule="evenodd" clip-rule="evenodd" d="M38.6666 18.1333L38.5332 17.9333L38.8666 17.8667L38.6666 18.1333ZM36.6666 18.6667L36.4666 18.4667L36.7332 18.3333L36.6666 18.6667ZM35.3332 20L34.9332 20.2L35.3332 20.5333V20ZM35.9999 20.9333L36.5332 21.1333L36.4666 20.4667L35.9999 20.9333ZM36.0666 20L36.3999 19.8667L36.1332 19.6L36.0666 20ZM36.9332 19.6667L36.5999 19.8667L36.9999 20.0667L36.9332 19.6667ZM38.5332 18.7333L38.3332 19.2L37.9999 18.7333H38.5332ZM36.7332 21L37.3332 20.4L36.3999 20.0667L36.7332 21ZM37.1999 19.5333L37.9999 19.6667L37.3999 20.4L37.1999 19.5333ZM37.7999 19.2667L38.0666 19.4667L38.1332 19.0667L37.7999 19.2667ZM36.9332 19.5333L36.4666 19.4667L36.7332 19L36.9332 19.5333ZM37.3999 18.8L37.7999 18.8667L37.5999 18.4L37.3999 18.8ZM38.4666 18.2L38.7332 18.4L38.3999 18.5333L38.4666 18.2ZM34.5999 21.0667L34.5332 20.6667L34.1332 21L34.5999 21.0667ZM34.1999 21.2667L33.9332 21.6L33.7332 21.1333L34.1999 21.2667ZM34.5999 21.8667L34.4665 21.4667L34.1332 21.7333L34.5999 21.8667ZM35.1332 21.0667L35.1999 21.4667L34.7332 21.4L35.1332 21.0667ZM35.3999 19.5333L35.6666 19.6667V19.3333L35.3999 19.5333ZM34.3999 20L34.1999 19.9333L34.3999 19.6667V20ZM17.7332 27.8L17.3999 27.7333L17.4666 28.0667L17.7332 27.8ZM17.9332 28.5333L18.1999 28.4V28.6667L17.9332 28.5333ZM19.5332 28.4L19.7999 28.5333L19.8666 28.2L19.5332 28.4ZM18.3332 26.8667L18.5332 27.1333L18.1332 27.2L18.3332 26.8667ZM20.3332 28.0667L20.4666 27.7333L20.0666 27.6667L20.3332 28.0667ZM19.6666 27.9333L19.9332 28.0667L19.7332 28.2667L19.6666 27.9333ZM20.6666 26.3333L20.7999 25.9333L20.3332 26L20.6666 26.3333ZM19.3332 26.5333L19.6666 26.6L19.3999 26.9333L19.3332 26.5333ZM18.7332 27.9333L18.3999 27.8667L18.5332 28.2L18.7332 27.9333ZM18.7332 26.0667L19.0666 26.1333L18.7999 26.4L18.7332 26.0667ZM19.5332 27.6L19.4666 27.4L19.1999 27.5333L19.5332 27.6ZM22.4666 20.8667L21.8666 20.6L22.3999 20.4L22.4666 20.8667ZM33.9999 20.4667L34.1999 20.5333V20.2667L33.9999 20.4667ZM18.7999 27.0667L18.5999 27.1333V26.8L18.7999 27.0667Z" fill="#AF2500"/>
<path d="M34.9998 33.4C33.7998 33.4 32.7998 31.7333 32.7998 29.8666C32.7998 28 33.7998 26.3333 34.9998 26.3333C35.1998 26.3333 35.4665 26.4 35.6665 26.4666V25.7333C35.4665 25.6666 35.2665 25.6 35.0665 25.6C33.4665 25.6 32.1998 27.5333 32.1998 29.8666C32.1998 32.2 33.4665 34.1333 35.0665 34.1333H35.3332L35.3998 33.4666C35.1998 33.3333 35.0665 33.4 34.9998 33.4Z" fill="white"/>
<path d="M37.8665 29.8C37.8665 27.8 36.9332 26.0667 35.5998 25.6667V26.4C36.4665 26.8667 37.1332 28.2 37.1332 29.8C37.1332 31.5333 36.3332 33 35.2665 33.2667L35.1998 33.9333C36.7332 33.8 37.8665 32 37.8665 29.8Z" fill="#CCCCCC"/>
</g>
<defs>
<linearGradient id="paint0_linear_32_1339" x1="21.2621" y1="48.9276" x2="26.8704" y2="44.2638" gradientUnits="userSpaceOnUse">
<stop stop-color="#BC5A32" stop-opacity="0.01"/>
<stop offset="0.99" stop-color="#BC5A32"/>
</linearGradient>
<linearGradient id="paint1_linear_32_1339" x1="31.1779" y1="24.8875" x2="30.1026" y2="18.9914" gradientUnits="userSpaceOnUse">
<stop stop-color="#BC5A32" stop-opacity="0.01"/>
<stop offset="0.99" stop-color="#BC5A32"/>
</linearGradient>
<linearGradient id="paint2_linear_32_1339" x1="17.3661" y1="34.782" x2="17.6091" y2="31.2313" gradientUnits="userSpaceOnUse">
<stop stop-color="#CC7A5E" stop-opacity="0.01"/>
<stop offset="0.924" stop-color="#AA5F4B"/>
</linearGradient>
</defs>
</svg>
