<svg width="52" height="48" viewBox="0 0 52 48" fill="none" xmlns="http://www.w3.org/2000/svg">
<path fill-rule="evenodd" clip-rule="evenodd" d="M2.10526 9C2.10526 4.02944 6.13469 0 11.1053 0H41.1053C46.0758 0 50.1053 4.02944 50.1053 9V39C50.1053 43.9706 46.0758 48 41.1053 48H11.1053C6.13469 48 2.10526 43.9706 2.10526 39V9Z" fill="#09B44D"/>
<path fill-rule="evenodd" clip-rule="evenodd" d="M27.7973 16H22.5053V18.4615H26.8133L29.2133 20.9231H19.5053C16.5053 20.9231 14.1053 23.3846 14.1053 26.4615C14.1053 29.5385 16.5053 32 19.5053 32C22.1693 32 24.3773 30.0062 24.8093 27.4092L27.3533 25.8462C27.3053 26.0554 27.3053 26.2523 27.3053 26.4615C27.3053 29.5385 29.7053 32 32.7053 32C35.7053 32 38.1053 29.5385 38.1053 26.4615C38.1053 23.3846 35.7053 20.9231 32.7053 20.9231H32.6093L27.7973 16ZM22.3133 27.3969C21.9053 28.64 20.8013 29.5385 19.4693 29.5385C17.8133 29.5385 16.4693 28.16 16.4693 26.4615C16.4693 24.7631 17.8133 23.3846 19.4693 23.3846C20.8133 23.3846 21.9053 24.2954 22.3133 25.5385H18.9053V27.3846L22.3133 27.3969ZM29.6693 26.4615C29.6693 28.16 31.0133 29.5385 32.6693 29.5385C34.3261 29.5385 35.6693 28.1609 35.6693 26.4615C35.6693 24.7622 34.3261 23.3846 32.6693 23.3846C31.0133 23.3846 29.6693 24.7631 29.6693 26.4615Z" fill="white"/>
</svg>
