<svg width="52" height="48" viewBox="0 0 52 48" fill="none" xmlns="http://www.w3.org/2000/svg">
<path fill-rule="evenodd" clip-rule="evenodd" d="M2.10526 9C2.10526 4.02944 6.13469 0 11.1053 0H41.1053C46.0758 0 50.1053 4.02944 50.1053 9V39C50.1053 43.9706 46.0758 48 41.1053 48H11.1053C6.13469 48 2.10526 43.9706 2.10526 39V9Z" fill="#09B44D"/>
<path fill-rule="evenodd" clip-rule="evenodd" d="M15.4386 14H36.7719V16.625H15.4386V14ZM38.1053 27.125V24.5L36.7719 17.9375H15.4386L14.1053 24.5V27.125H15.4386V35H28.7719V27.125H34.1053V35H36.7719V27.125H38.1053ZM26.1053 32.375H18.1053V27.125H26.1053V32.375Z" fill="white"/>
</svg>
